<?xml version="1.0" encoding="UTF-8" standalone="no"?>
<!DOCTYPE svg PUBLIC "-//W3C//DTD SVG 1.1//EN" "http://www.w3.org/Graphics/SVG/1.1/DTD/svg11.dtd">
<svg version="1.1" xmlns="http://www.w3.org/2000/svg" xmlns:xlink="http://www.w3.org/1999/xlink" preserveAspectRatio="xMidYMid meet" viewBox="0 0 640 640" width="640" height="640"><defs><path d="M0 0L640 0L640 640L0 640L0 0Z" id="aGsb5d7Yn"></path><path d="M0 560L80 560L80 640L0 640L0 560Z" id="beFVANYq8"></path><path d="M160 560L240 560L240 640L160 640L160 560Z" id="aTqJmDpCb"></path><path d="M320 560L400 560L400 640L320 640L320 560Z" id="ddqjH3Lro"></path><path d="M480 560L560 560L560 640L480 640L480 560Z" id="a79dvclzy"></path><path d="M80 480L160 480L160 560L80 560L80 480Z" id="a1YGRduj6a"></path><path d="M240 480L320 480L320 560L240 560L240 480Z" id="n1POA1Bt8M"></path><path d="M400 480L480 480L480 560L400 560L400 480Z" id="d6ha2ykc8E"></path><path d="M560 480L640 480L640 560L560 560L560 480Z" id="k1gQ4cH2ly"></path><path d="M160 400L240 400L240 480L160 480L160 400Z" id="b1mkpni0I"></path><path d="M0 400L80 400L80 480L0 480L0 400Z" id="bGBJD0JsU"></path><path d="M320 400L400 400L400 480L320 480L320 400Z" id="e3dYMo4PKz"></path><path d="M560 400L480 400L480 480L560 480L560 400Z" id="a15TCDlR5v"></path><path d="M640 320L560 320L560 400L640 400L640 320Z" id="eezNVOO2c"></path><path d="M400 320L480 320L480 400L400 400L400 320Z" id="b1tLFBUMLE"></path><path d="M80 320L160 320L160 400L80 400L80 320Z" id="fqcumzhc"></path><path d="M240 320L320 320L320 400L240 400L240 320Z" id="g7V5wzZ6H"></path><path d="M0 240L80 240L80 320L0 320L0 240Z" id="c1HwvpGgfL"></path><path d="M160 240L240 240L240 320L160 320L160 240Z" id="a5efxwkXRZ"></path><path d="M320 240L400 240L400 320L320 320L320 240Z" id="i3FhBo7yTl"></path><path d="M480 240L560 240L560 320L480 320L480 240Z" id="bwFqSOEiJ"></path><path d="M80 160L160 160L160 240L80 240L80 160Z" id="b9yWpP7kx"></path><path d="M240 160L320 160L320 240L240 240L240 160Z" id="a4szzkOAEi"></path><path d="M400 160L480 160L480 240L400 240L400 160Z" id="bAGAAZ3Cf"></path><path d="M560 160L640 160L640 240L560 240L560 160Z" id="d1fXduGMPG"></path><path d="M0 80L80 80L80 160L0 160L0 80Z" id="bc2toiEeW7"></path><path d="M320 80L400 80L400 160L320 160L320 80Z" id="a1eY51r8xV"></path><path d="M160 80L240 80L240 160L160 160L160 80Z" id="c6UsA3ml2r"></path><path d="M480 80L560 80L560 160L480 160L480 80Z" id="h4xZUxd0fw"></path><path d="M240 0L320 0L320 80L240 80L240 0Z" id="d501dZKUyH"></path><path d="M80 160L160 160L160 240L80 240L80 160Z" id="fAQS8gBkj"></path><path d="M80 0L160 0L160 80L80 80L80 0Z" id="b6sreORn9E"></path><path d="M560 0L640 0L640 80L560 80L560 0Z" id="j2BpZBP5Qx"></path><path d="M400 0L480 0L480 80L400 80L400 0Z" id="d15Q2oxCcK"></path></defs><g><g><g><use xlink:href="#aGsb5d7Yn" opacity="1" fill="#ffffff" fill-opacity="1"></use></g><g><use xlink:href="#beFVANYq8" opacity="1" fill="#000000" fill-opacity="1"></use></g><g><use xlink:href="#aTqJmDpCb" opacity="1" fill="#000000" fill-opacity="1"></use></g><g><use xlink:href="#ddqjH3Lro" opacity="1" fill="#000000" fill-opacity="1"></use></g><g><use xlink:href="#a79dvclzy" opacity="1" fill="#000000" fill-opacity="1"></use></g><g><use xlink:href="#a1YGRduj6a" opacity="1" fill="#000000" fill-opacity="1"></use></g><g><use xlink:href="#n1POA1Bt8M" opacity="1" fill="#000000" fill-opacity="1"></use></g><g><use xlink:href="#d6ha2ykc8E" opacity="1" fill="#000000" fill-opacity="1"></use></g><g><use xlink:href="#k1gQ4cH2ly" opacity="1" fill="#000000" fill-opacity="1"></use></g><g><use xlink:href="#b1mkpni0I" opacity="1" fill="#000000" fill-opacity="1"></use></g><g><use xlink:href="#bGBJD0JsU" opacity="1" fill="#000000" fill-opacity="1"></use></g><g><use xlink:href="#e3dYMo4PKz" opacity="1" fill="#000000" fill-opacity="1"></use></g><g><use xlink:href="#a15TCDlR5v" opacity="1" fill="#000000" fill-opacity="1"></use></g><g><use xlink:href="#eezNVOO2c" opacity="1" fill="#000000" fill-opacity="1"></use></g><g><use xlink:href="#b1tLFBUMLE" opacity="1" fill="#000000" fill-opacity="1"></use></g><g><use xlink:href="#fqcumzhc" opacity="1" fill="#000000" fill-opacity="1"></use></g><g><use xlink:href="#g7V5wzZ6H" opacity="1" fill="#000000" fill-opacity="1"></use></g><g><use xlink:href="#c1HwvpGgfL" opacity="1" fill="#000000" fill-opacity="1"></use></g><g><use xlink:href="#a5efxwkXRZ" opacity="1" fill="#000000" fill-opacity="1"></use></g><g><use xlink:href="#i3FhBo7yTl" opacity="1" fill="#000000" fill-opacity="1"></use></g><g><use xlink:href="#bwFqSOEiJ" opacity="1" fill="#000000" fill-opacity="1"></use></g><g><use xlink:href="#b9yWpP7kx" opacity="1" fill="#000000" fill-opacity="1"></use></g><g><use xlink:href="#a4szzkOAEi" opacity="1" fill="#000000" fill-opacity="1"></use></g><g><use xlink:href="#bAGAAZ3Cf" opacity="1" fill="#000000" fill-opacity="1"></use></g><g><use xlink:href="#d1fXduGMPG" opacity="1" fill="#000000" fill-opacity="1"></use></g><g><use xlink:href="#bc2toiEeW7" opacity="1" fill="#000000" fill-opacity="1"></use></g><g><use xlink:href="#a1eY51r8xV" opacity="1" fill="#000000" fill-opacity="1"></use></g><g><use xlink:href="#c6UsA3ml2r" opacity="1" fill="#000000" fill-opacity="1"></use></g><g><use xlink:href="#h4xZUxd0fw" opacity="1" fill="#000000" fill-opacity="1"></use></g><g><use xlink:href="#d501dZKUyH" opacity="1" fill="#000000" fill-opacity="1"></use></g><g><use xlink:href="#fAQS8gBkj" opacity="1" fill="#000000" fill-opacity="1"></use></g><g><use xlink:href="#b6sreORn9E" opacity="1" fill="#000000" fill-opacity="1"></use></g><g><use xlink:href="#j2BpZBP5Qx" opacity="1" fill="#000000" fill-opacity="1"></use></g><g><use xlink:href="#d15Q2oxCcK" opacity="1" fill="#000000" fill-opacity="1"></use></g></g></g></svg>